<svg width="48" height="48" viewBox="0 0 48 48" fill="none" xmlns="http://www.w3.org/2000/svg">
<path d="M15.1588 10.9431L15.1657 10.9485C15.2489 10.8348 15.33 10.7194 15.4087 10.6024C15.4065 10.5902 15.4043 10.5779 15.402 10.5657C16.31 9.07896 17.3449 6.51751 17.2578 4.17219L17.2319 3.47361C17.2282 3.37288 17.1224 3.31069 17.0348 3.35776L16.4276 3.68418C15.5187 4.17274 14.6979 4.79383 13.9828 5.51615C13.6019 4.92588 13.1769 4.36456 12.7114 3.83822C13.5249 3.04956 14.4474 2.3677 15.4619 1.82232L16.0691 1.49591C17.5038 0.72471 19.2373 1.74362 19.2985 3.39408L19.3245 4.09265C19.4699 8.00899 17.7898 11.7797 14.9203 14.2831C14.7645 14.2777 14.6169 14.2688 14.4785 14.2568L14.8909 11.3078C14.9766 11.2006 15.0664 11.0785 15.1588 10.9431Z" fill="white"/>
<path d="M12.4833 8.28424C12.5561 8.42386 12.6221 8.55829 12.6809 8.68627L9.96575 9.79723C9.82085 9.7736 9.6729 9.75368 9.52232 9.73747L9.52271 9.73468C9.38431 9.71815 9.24563 9.7044 9.10676 9.69342C9.10351 9.69624 9.10026 9.69906 9.09701 9.70189C7.01248 9.57593 4.52808 10.1157 2.71226 11.2783L2.13099 11.6504C2.04717 11.7041 2.04717 11.8284 2.13099 11.8821L2.71226 12.2543C3.58229 12.8113 4.52104 13.2244 5.49302 13.4937C5.18137 14.1247 4.91636 14.7801 4.70141 15.4537C3.62375 15.1308 2.58248 14.6584 1.61128 14.0366L1.03 13.6644C-0.343335 12.7852 -0.343335 10.7473 1.03 9.86809L1.61128 9.49593C4.87045 7.40929 8.91867 7.00539 12.4833 8.28424Z" fill="white"/>
<path d="M8.59359 13.4105C9.28305 17.2013 11.6532 20.5778 15.0642 22.4114L15.6715 22.7378C17.1061 23.509 18.8396 22.4901 18.9009 20.8397L18.9268 20.1411C18.9701 18.9739 18.8513 17.8197 18.5872 16.7081C17.9067 16.8554 17.2167 16.9494 16.5241 16.9901C16.7811 17.9817 16.899 19.016 16.8602 20.0615L16.8342 20.7601C16.8305 20.8608 16.7247 20.923 16.6371 20.876L16.0299 20.5496C13.9648 19.4394 12.3219 17.2599 11.5167 15.7158C11.506 15.7119 11.4952 15.708 11.4845 15.7042C11.4244 15.5762 11.3668 15.4471 11.3116 15.3168L11.3191 15.3137C11.2507 15.1647 11.1919 15.0244 11.1433 14.8949L8.83651 13.0532C8.75388 13.1689 8.67285 13.288 8.59359 13.4105Z" fill="white"/>
<path d="M15.1657 10.9485C15.1655 10.9487 15.1658 10.9483 15.1657 10.9485Z" fill="white"/>
<path d="M14.767 10.6302L14.8761 10.4704L14.8757 10.4682L14.9753 10.3051C15.0648 10.1586 15.1554 10.0015 15.2458 9.83518C14.3954 6.35411 12.1187 3.29963 8.93576 1.58859L8.32854 1.26217C6.89391 0.490976 5.16041 1.50989 5.09913 3.16034L5.07319 3.85892C5.02985 5.02609 5.14865 6.18033 5.41276 7.29193C6.09328 7.14463 6.78326 7.05061 7.47586 7.00987C7.21894 6.01827 7.10101 4.98403 7.13983 3.93845L7.16577 3.23988C7.16951 3.13915 7.27532 3.07696 7.36287 3.12403L7.97009 3.45044C9.75901 4.41209 11.2311 6.17616 12.1162 7.63457C12.2959 7.69023 12.4746 7.74992 12.6521 7.81361L12.8362 7.87965L12.9267 8.05306C13.003 8.19951 13.0727 8.34143 13.1352 8.47752L13.353 8.95149L12.8977 9.1378L14.767 10.6302Z" fill="white"/>
<path d="M13.978 14.2258L11.7823 15.1242L11.8679 15.3106L11.8696 15.3112L11.96 15.4846C12.037 15.6321 12.1217 15.7853 12.2138 15.9427C15.6015 16.9353 19.3403 16.4558 22.3887 14.5041L22.97 14.1319C24.3433 13.2526 24.3433 11.2148 22.97 10.3356L22.3887 9.96341C21.4175 9.34161 20.3762 8.86924 19.2986 8.54629C19.0836 9.21994 18.8186 9.87528 18.507 10.5063C19.479 10.7756 20.4177 11.1887 21.2877 11.7457L21.869 12.1179C21.9528 12.1716 21.9528 12.2959 21.869 12.3496L21.2877 12.7217C19.5849 13.8119 17.3451 14.2288 15.6627 14.283C15.5276 14.4115 15.3896 14.5371 15.249 14.6598L15.1002 14.7896L14.9029 14.7828C14.7393 14.7771 14.583 14.7677 14.4354 14.755L13.9103 14.7095L13.978 14.2258Z" fill="white"/>
<path d="M8.21307 14.0474C7.27335 15.7519 6.67075 17.9046 6.74217 19.8278L6.76811 20.5264C6.77185 20.6271 6.87765 20.6893 6.96521 20.6422L7.57243 20.3158C8.48127 19.8273 9.3021 19.2062 10.0172 18.4838C10.3981 19.0741 10.8231 19.6354 11.2886 20.1618C10.4751 20.9504 9.55263 21.6323 8.53809 22.1777L7.93087 22.5041C6.49625 23.2753 4.76275 22.2564 4.70146 20.6059L4.67552 19.9073C4.53889 16.2276 6.01386 12.6765 8.57283 10.1843C8.73967 10.1856 8.90453 10.1912 9.06685 10.201L9.27082 10.2133L9.45303 10.2329L9.11676 12.6372L8.73634 12.3334L8.42971 12.7625C8.34248 12.8846 8.25716 13.0101 8.17389 13.1387L8.06621 13.305L8.10166 13.4999C8.13503 13.6834 8.17219 13.8659 8.21307 14.0474Z" fill="white"/>
<path d="M11.4845 15.7042C11.4683 15.6697 11.4523 15.6351 11.4364 15.6004C11.3936 15.5066 11.352 15.4122 11.3118 15.3171L11.3191 15.3137" fill="white"/>
<path d="M9.52262 9.73467C9.52259 9.73466 9.52265 9.73467 9.52262 9.73467Z" fill="white"/>
<path d="M15.402 10.5657L15.4087 10.6024C15.4065 10.5902 15.4043 10.5779 15.402 10.5657Z" fill="white"/>
<path d="M39.1588 34.9431L39.1657 34.9485C39.2489 34.8348 39.33 34.7194 39.4087 34.6024C39.4065 34.5902 39.4043 34.5779 39.402 34.5657C40.31 33.079 41.3449 30.5175 41.2578 28.1722L41.2319 27.4736C41.2282 27.3729 41.1224 27.3107 41.0348 27.3578L40.4276 27.6842C39.5187 28.1727 38.6979 28.7938 37.9828 29.5161C37.6019 28.9259 37.1769 28.3646 36.7114 27.8382C37.5249 27.0496 38.4474 26.3677 39.4619 25.8223L40.0691 25.4959C41.5038 24.7247 43.2373 25.7436 43.2985 27.3941L43.3245 28.0926C43.4699 32.009 41.7898 35.7797 38.9203 38.2831C38.7645 38.2777 38.6169 38.2688 38.4785 38.2568L38.8909 35.3078C38.9766 35.2006 39.0664 35.0785 39.1588 34.9431Z" fill="white"/>
<path d="M36.4833 32.2842C36.5561 32.4239 36.6221 32.5583 36.6809 32.6863L33.9658 33.7972C33.8209 33.7736 33.6729 33.7537 33.5223 33.7375L33.5227 33.7347C33.3843 33.7182 33.2456 33.7044 33.1068 33.6934C33.1035 33.6962 33.1003 33.6991 33.097 33.7019C31.0125 33.5759 28.5281 34.1157 26.7123 35.2783L26.131 35.6504C26.0472 35.7041 26.0472 35.8284 26.131 35.8821L26.7123 36.2543C27.5823 36.8113 28.521 37.2244 29.493 37.4937C29.1814 38.1247 28.9164 38.7801 28.7014 39.4537C27.6238 39.1308 26.5825 38.6584 25.6113 38.0366L25.03 37.6644C23.6567 36.7852 23.6567 34.7473 25.03 33.8681L25.6113 33.4959C28.8705 31.4093 32.9187 31.0054 36.4833 32.2842Z" fill="white"/>
<path d="M32.5936 37.4105C33.2831 41.2013 35.6532 44.5778 39.0642 46.4114L39.6715 46.7378C41.1061 47.509 42.8396 46.4901 42.9009 44.8397L42.9268 44.1411C42.9701 42.9739 42.8513 41.8197 42.5872 40.7081C41.9067 40.8554 41.2167 40.9494 40.5241 40.9901C40.7811 41.9817 40.899 43.016 40.8602 44.0615L40.8342 44.7601C40.8305 44.8608 40.7247 44.923 40.6371 44.876L40.0299 44.5496C37.9648 43.4394 36.3219 41.2599 35.5167 39.7158C35.506 39.7119 35.4952 39.708 35.4845 39.7042C35.4244 39.5762 35.3668 39.4471 35.3116 39.3168L35.3191 39.3137C35.2507 39.1647 35.1919 39.0244 35.1433 38.8949L32.8365 37.0532C32.7539 37.1689 32.6729 37.288 32.5936 37.4105Z" fill="white"/>
<path d="M39.1657 34.9485C39.1655 34.9487 39.1658 34.9483 39.1657 34.9485Z" fill="white"/>
<path d="M38.767 34.6302L38.8761 34.4704L38.8757 34.4682L38.9753 34.3051C39.0648 34.1586 39.1554 34.0015 39.2458 33.8352C38.3954 30.3541 36.1187 27.2996 32.9358 25.5886L32.3285 25.2622C30.8939 24.491 29.1604 25.5099 29.0991 27.1603L29.0732 27.8589C29.0298 29.0261 29.1487 30.1803 29.4128 31.2919C30.0933 31.1446 30.7833 31.0506 31.4759 31.0099C31.2189 30.0183 31.101 28.984 31.1398 27.9385L31.1658 27.2399C31.1695 27.1391 31.2753 27.077 31.3629 27.124L31.9701 27.4504C33.759 28.4121 35.2311 30.1762 36.1162 31.6346C36.2959 31.6902 36.4746 31.7499 36.6521 31.8136L36.8362 31.8796L36.9267 32.0531C37.003 32.1995 37.0727 32.3414 37.1352 32.4775L37.353 32.9515L36.8977 33.1378L38.767 34.6302Z" fill="white"/>
<path d="M37.978 38.2258L35.7823 39.1242L35.8679 39.3106L35.8696 39.3112L35.96 39.4846C36.037 39.6321 36.1217 39.7853 36.2138 39.9427C39.6015 40.9353 43.3403 40.4558 46.3887 38.5041L46.97 38.1319C48.3433 37.2526 48.3433 35.2148 46.97 34.3356L46.3887 33.9634C45.4175 33.3416 44.3762 32.8692 43.2986 32.5463C43.0836 33.2199 42.8186 33.8753 42.507 34.5063C43.479 34.7756 44.4177 35.1887 45.2877 35.7457L45.869 36.1179C45.9528 36.1716 45.9528 36.2959 45.869 36.3496L45.2877 36.7217C43.5849 37.8119 41.3451 38.2288 39.6627 38.283C39.5276 38.4115 39.3896 38.5371 39.249 38.6598L39.1002 38.7896L38.9029 38.7828C38.7393 38.7771 38.583 38.7677 38.4354 38.755L37.9103 38.7095L37.978 38.2258Z" fill="white"/>
<path d="M32.2131 38.0474C31.2733 39.7519 30.6708 41.9046 30.7422 43.8278L30.7681 44.5264C30.7718 44.6271 30.8776 44.6893 30.9652 44.6422L31.5724 44.3158C32.4813 43.8273 33.3021 43.2062 34.0172 42.4838C34.3981 43.0741 34.8231 43.6354 35.2886 44.1618C34.4751 44.9504 33.5526 45.6323 32.5381 46.1777L31.9309 46.5041C30.4962 47.2753 28.7627 46.2564 28.7015 44.6059L28.6755 43.9073C28.5389 40.2276 30.0139 36.6765 32.5728 34.1843C32.7397 34.1856 32.9045 34.1912 33.0669 34.201L33.2708 34.2133L33.453 34.2329L33.1168 36.6372L32.7363 36.3334L32.4297 36.7625C32.3425 36.8846 32.2572 37.0101 32.1739 37.1387L32.0662 37.305L32.1017 37.4999C32.135 37.6834 32.1722 37.8659 32.2131 38.0474Z" fill="white"/>
<path d="M35.4845 39.7042C35.4683 39.6697 35.4523 39.6351 35.4364 39.6004C35.3936 39.5066 35.352 39.4122 35.3118 39.3171L35.3191 39.3137" fill="white"/>
<path d="M33.5226 33.7347C33.5226 33.7347 33.5226 33.7347 33.5226 33.7347Z" fill="white"/>
<path d="M39.402 34.5657L39.4087 34.6024C39.4065 34.5902 39.4043 34.5779 39.402 34.5657Z" fill="white"/>
<path fill-rule="evenodd" clip-rule="evenodd" d="M26.8333 5.67185C26.8333 4.28024 28.3229 3.396 29.5446 4.06237L33.1285 6.01723L35.0428 4.97307L30.4225 2.4529C27.9791 1.12015 25 2.88863 25 5.67185V7.95813C25 10.8094 26.5575 13.433 29.0606 14.7984L33.1286 17.0173L35.0429 15.9731L29.9385 13.1889C28.0243 12.1448 26.8333 10.1385 26.8333 7.95813V5.67185ZM38.8715 18.0614L36.9572 19.1056L41.5776 21.6258C44.0209 22.9586 47 21.1901 47 18.4069V16.1206C47 13.2693 45.4425 10.6457 42.9394 9.28031L38.8714 7.0614L36.9571 8.10555L42.0615 10.8898C43.9757 11.9339 45.1667 13.9402 45.1667 16.1206V18.4069C45.1667 19.7985 43.6771 20.6827 42.4554 20.0163L38.8715 18.0614Z" fill="white"/>
<path fill-rule="evenodd" clip-rule="evenodd" d="M25.6672 12.9658C25.2343 13.943 25 15.0147 25 16.1206V18.4068C25 21.1901 27.9791 22.9585 30.4225 21.6258L42.9394 14.7983C43.2663 14.62 43.5771 14.4202 43.8705 14.2012C43.6355 13.6307 43.2973 13.1068 42.8721 12.657C42.6193 12.8541 42.3485 13.0323 42.0615 13.1888L29.5446 20.0163C28.3229 20.6827 26.8333 19.7985 26.8333 18.4068V16.1206C26.8333 15.5683 26.9097 15.0272 27.055 14.5101C26.5295 14.0501 26.0644 13.531 25.6672 12.9658ZM29.1279 11.4216C28.7028 10.9718 28.3645 10.4479 28.1296 9.8774C28.4229 9.65843 28.7337 9.45864 29.0606 9.28033L41.5776 2.4529C44.0209 1.12015 47 2.88863 47 5.67184V7.95803C47 9.06392 46.7657 10.1356 46.3329 11.1128C45.9357 10.5476 45.4705 10.0285 44.9451 9.56846C45.0903 9.05137 45.1667 8.51028 45.1667 7.95803V5.67184C45.1667 4.28023 43.6771 3.39599 42.4554 4.06236L29.9385 10.8898C29.6515 11.0463 29.3808 11.2245 29.1279 11.4216Z" fill="white"/>
<path fill-rule="evenodd" clip-rule="evenodd" d="M2.83333 29.6718C2.83333 28.2802 4.32287 27.396 5.54456 28.0624L9.12845 30.0172L11.0428 28.9731L6.42245 26.4529C3.97908 25.1201 1 26.8886 1 29.6718L1 31.9581C1 34.8094 2.55745 37.433 5.0606 38.7984L9.12856 41.0173L11.0429 39.9731L5.9385 37.1889C4.02434 36.1448 2.83333 34.1385 2.83333 31.9581L2.83333 29.6718ZM14.8715 42.0614L12.9572 43.1056L17.5776 45.6258C20.0209 46.9586 23 45.1901 23 42.4069V40.1206C23 37.2693 21.4425 34.6457 18.9394 33.2803L14.8714 31.0614L12.9571 32.1056L18.0615 34.8898C19.9757 35.9339 21.1667 37.9402 21.1667 40.1206V42.4069C21.1667 43.7985 19.6771 44.6827 18.4554 44.0163L14.8715 42.0614Z" fill="white"/>
<path fill-rule="evenodd" clip-rule="evenodd" d="M1.66719 36.9658C1.23429 37.943 1 39.0147 1 40.1206L1 42.4068C1 45.1901 3.9791 46.9585 6.42247 45.6258L18.9394 38.7983C19.2663 38.62 19.5771 38.4202 19.8705 38.2012C19.6355 37.6307 19.2973 37.1068 18.8721 36.657C18.6193 36.8541 18.3485 37.0323 18.0615 37.1888L5.54456 44.0163C4.32287 44.6827 2.83333 43.7985 2.83333 42.4068L2.83333 40.1206C2.83333 39.5683 2.90974 39.0272 3.05496 38.5101C2.52953 38.0501 2.06436 37.531 1.66719 36.9658ZM5.12791 35.4216C4.70276 34.9718 4.36453 34.4479 4.12957 33.8774C4.42288 33.6584 4.73368 33.4586 5.0606 33.2803L17.5776 26.4529C20.0209 25.1201 23 26.8886 23 29.6718V31.958C23 33.0639 22.7657 34.1356 22.3329 35.1128C21.9357 34.5476 21.4705 34.0285 20.9451 33.5685C21.0903 33.0514 21.1667 32.5103 21.1667 31.958V29.6718C21.1667 28.2802 19.6771 27.396 18.4554 28.0624L5.9385 34.8898C5.65153 35.0463 5.3808 35.2245 5.12791 35.4216Z" fill="white"/>
</svg>
