<svg width="28" height="28" viewBox="0 0 28 28" fill="none" xmlns="http://www.w3.org/2000/svg">
<g clip-path="url(#clip0_155_71)">
<path d="M19.5153 2.24517C18.4653 3.31517 18.4653 5.09517 19.5653 6.19517L19.6767 6.30657C19.6068 6.39418 19.5419 6.48604 19.4824 6.58171C18.759 6.15682 17.6966 6.28075 16.9253 7.06522L6.84524 17.3652C6.12479 18.1041 5.99585 19.0782 6.34636 19.7783C6.25981 19.8333 6.17645 19.8929 6.09664 19.9566L5.98525 19.8452C4.88525 18.7452 3.10525 18.7452 2.03525 19.7952L0.715247 21.1052C0.645247 21.1752 0.655247 21.2752 0.725247 21.3452C1.9834 22.4756 3.92753 22.4756 5.16162 21.3071C5.08284 21.555 5.03886 21.8163 5.03525 22.0852V23.9452C5.03525 24.0352 5.11525 24.1152 5.20525 24.1052C6.92525 24.0152 8.31526 22.5952 8.31526 20.8452V20.7863L21.3053 23.1352C21.3753 23.1552 21.4353 23.2052 21.4453 23.2752L22.2553 27.4152C22.3753 28.0052 23.1153 28.1552 23.5953 27.6752L27.7153 23.5552C28.1953 23.0752 28.0453 22.3352 27.4553 22.2152L24.8953 21.7152L23.2353 21.3952C23.1653 21.3852 23.1053 21.3352 23.0953 21.2652L20.4255 8.5252H20.5653C22.3153 8.5252 23.7353 7.13518 23.8253 5.41518C23.8353 5.32518 23.7553 5.24518 23.6653 5.24518H21.8053C21.5364 5.24879 21.275 5.29278 21.0272 5.37156C22.1956 4.13748 22.1957 2.19333 21.0653 0.93517C20.9953 0.86517 20.8953 0.86517 20.8253 0.92517L19.5153 2.24517Z" fill="#F5F1FF"/>
<path d="M21.4141 23.2031L21.6406 24.2851L24.3226 21.6039L23.1873 21.386L21.4141 23.2031Z" fill="#FF80D4"/>
<path d="M15.2252 10.0352L19.8652 8.1052L18.7152 5.34518C17.9952 3.61518 16.6152 2.24518 14.8752 1.54518C14.5552 1.41518 14.1952 1.57518 14.0652 1.88518C13.3552 3.60518 13.3552 5.52518 14.0652 7.24518L15.2252 10.0352Z" fill="#FF00AA"/>
<path d="M10.0352 14.9852L8.1052 19.6252L5.34518 18.4752C3.61518 17.7552 2.24518 16.3752 1.54518 14.6352C1.41518 14.3152 1.57518 13.9552 1.88518 13.8252C3.60518 13.1152 5.52518 13.1152 7.24518 13.8252L10.0352 14.9852Z" fill="#FF00AA"/>
<path d="M18.1252 0.0251853C18.3352 -0.0648147 18.6052 0.0951852 18.7152 0.365185L19.9652 3.36519C20.3052 4.19519 20.6352 5.47519 20.6252 6.26519C20.6352 8.2152 19.5652 9.4952 17.9852 10.1552C16.2752 10.8552 14.4452 10.5652 13.0452 8.9252C12.7152 8.5352 12.2352 7.65518 11.9852 7.16518C11.8952 6.99518 11.8152 6.81519 11.7352 6.63519H11.7452L10.5552 3.76519C10.4452 3.48519 10.5252 3.18519 10.7452 3.09519C12.2552 2.46519 14.4652 4.13519 15.9352 6.06519C16.1952 6.40519 16.6152 6.23519 16.5552 5.81519C16.2252 3.40518 16.6052 0.645185 18.1252 0.0251853Z" fill="#FF80D5"/>
<path d="M0.0251853 17.8852C-0.0648147 18.0952 0.0951852 18.3652 0.365185 18.4752L3.36519 19.7252C4.19519 20.0652 5.47519 20.3952 6.26519 20.3852C8.2152 20.3952 9.4952 19.3252 10.1552 17.7452C10.8552 16.0352 10.5652 14.2052 8.9252 12.8052C8.5352 12.4752 7.65518 11.9952 7.16518 11.7452C6.99518 11.6552 6.81519 11.5752 6.63519 11.4952V11.5052L3.76519 10.3152C3.48519 10.2052 3.18519 10.2852 3.09519 10.5052C2.46519 12.0152 4.13519 14.2252 6.06519 15.6952C6.40519 15.9552 6.23519 16.3752 5.81519 16.3152C3.40518 15.9852 0.645185 16.3652 0.0251853 17.8852Z" fill="#FF80D5"/>
<path d="M6.3453 14.0152C5.7153 13.0152 6.0753 11.6952 7.1253 11.1652L8.07532 10.6852L7.2953 10.0352C6.4053 9.2852 6.3353 7.94522 7.1353 7.10522C7.9553 6.25522 9.32532 6.29522 10.0953 7.18522L10.7253 7.91522L11.1653 6.96522C11.6653 5.89522 12.9653 5.48522 13.9853 6.07522C14.9853 6.65522 15.2853 7.97522 14.6353 8.9352L14.1253 9.6852L15.2853 9.7852C16.4553 9.8852 17.2953 10.9652 17.0853 12.1252C16.8853 13.2652 15.7453 13.9952 14.6253 13.7152L13.7853 13.5352L14.0453 14.3052C14.3753 15.4152 13.6853 16.5752 12.5553 16.8252C11.4053 17.0752 10.2853 16.2852 10.1453 15.1152L9.99532 13.9752L9.21532 14.5452C8.28532 15.2452 6.9653 14.9952 6.3453 14.0152Z" fill="#FFD580"/>
<path d="M11.0753 12.8152C12.1191 12.8152 12.9653 11.969 12.9653 10.9252C12.9653 9.88126 12.1191 9.03516 11.0753 9.03516C10.0315 9.03516 9.1853 9.88126 9.1853 10.9252C9.1853 11.969 10.0315 12.8152 11.0753 12.8152Z" fill="#FFAA00"/>
</g>
<defs>
<clipPath id="clip0_155_71">
<rect width="28" height="28" fill="white"/>
</clipPath>
</defs>
</svg>
