<svg width="140" height="28" viewBox="0 0 140 28" fill="none" xmlns="http://www.w3.org/2000/svg">
<path d="M19.5153 2.24517C18.4653 3.31517 18.4653 5.09517 19.5653 6.19517L19.6767 6.30657C19.6068 6.39418 19.5419 6.48604 19.4824 6.58171C18.759 6.15682 17.6966 6.28075 16.9253 7.06522L6.84524 17.3652C6.12479 18.1041 5.99585 19.0782 6.34636 19.7783C6.25981 19.8333 6.17645 19.8929 6.09664 19.9566L5.98525 19.8452C4.88525 18.7452 3.10525 18.7452 2.03525 19.7952L0.715247 21.1052C0.645247 21.1752 0.655247 21.2752 0.725247 21.3452C1.9834 22.4756 3.92753 22.4756 5.16162 21.3071C5.08284 21.555 5.03886 21.8163 5.03525 22.0852V23.9452C5.03525 24.0352 5.11525 24.1152 5.20525 24.1052C6.92525 24.0152 8.31526 22.5952 8.31526 20.8452V20.7863L21.3053 23.1352C21.3753 23.1552 21.4353 23.2052 21.4453 23.2752L22.2553 27.4152C22.3753 28.0052 23.1153 28.1552 23.5953 27.6752L27.7153 23.5552C28.1953 23.0752 28.0453 22.3352 27.4553 22.2152L24.8953 21.7152L23.2353 21.3952C23.1653 21.3852 23.1053 21.3352 23.0953 21.2652L20.4255 8.5252H20.5653C22.3153 8.5252 23.7353 7.13518 23.8253 5.41518C23.8353 5.32518 23.7553 5.24518 23.6653 5.24518H21.8053C21.5364 5.24879 21.275 5.29278 21.0272 5.37156C22.1956 4.13748 22.1957 2.19333 21.0653 0.93517C20.9953 0.86517 20.8953 0.86517 20.8253 0.92517L19.5153 2.24517Z" fill="#201432"/>
<path d="M21.4141 23.2031L21.6406 24.2851L24.3226 21.6039L23.1873 21.386L21.4141 23.2031Z" fill="#FF00AA"/>
<path d="M15.2252 10.0352L19.8652 8.1052L18.7152 5.34518C17.9952 3.61518 16.6152 2.24518 14.8752 1.54518C14.5552 1.41518 14.1952 1.57518 14.0652 1.88518C13.3552 3.60518 13.3552 5.52518 14.0652 7.24518L15.2252 10.0352Z" fill="#FF00AA"/>
<path d="M10.0352 14.9852L8.1052 19.6252L5.34518 18.4752C3.61518 17.7552 2.24518 16.3752 1.54518 14.6352C1.41518 14.3152 1.57518 13.9552 1.88518 13.8252C3.60518 13.1152 5.52518 13.1152 7.24518 13.8252L10.0352 14.9852Z" fill="#FF00AA"/>
<path d="M18.1252 0.0251853C18.3352 -0.0648147 18.6052 0.0951852 18.7152 0.365185L19.9652 3.36519C20.3052 4.19519 20.6352 5.47519 20.6252 6.26519C20.6352 8.2152 19.5652 9.4952 17.9852 10.1552C16.2752 10.8552 14.4452 10.5652 13.0452 8.9252C12.7152 8.5352 12.2352 7.65518 11.9852 7.16518C11.8952 6.99518 11.8152 6.81519 11.7352 6.63519H11.7452L10.5552 3.76519C10.4452 3.48519 10.5252 3.18519 10.7452 3.09519C12.2552 2.46519 14.4652 4.13519 15.9352 6.06519C16.1952 6.40519 16.6152 6.23519 16.5552 5.81519C16.2252 3.40518 16.6052 0.645185 18.1252 0.0251853Z" fill="#FF80D5"/>
<path d="M0.0251853 17.8852C-0.0648147 18.0952 0.0951852 18.3652 0.365185 18.4752L3.36519 19.7252C4.19519 20.0652 5.47519 20.3952 6.26519 20.3852C8.2152 20.3952 9.4952 19.3252 10.1552 17.7452C10.8552 16.0352 10.5652 14.2052 8.9252 12.8052C8.5352 12.4752 7.65518 11.9952 7.16518 11.7452C6.99518 11.6552 6.81519 11.5752 6.63519 11.4952V11.5052L3.76519 10.3152C3.48519 10.2052 3.18519 10.2852 3.09519 10.5052C2.46519 12.0152 4.13519 14.2252 6.06519 15.6952C6.40519 15.9552 6.23519 16.3752 5.81519 16.3152C3.40518 15.9852 0.645185 16.3652 0.0251853 17.8852Z" fill="#FF80D5"/>
<path d="M6.3453 14.0152C5.7153 13.0152 6.0753 11.6952 7.1253 11.1652L8.07532 10.6852L7.2953 10.0352C6.4053 9.2852 6.3353 7.94522 7.1353 7.10522C7.9553 6.25522 9.32532 6.29522 10.0953 7.18522L10.7253 7.91522L11.1653 6.96522C11.6653 5.89522 12.9653 5.48522 13.9853 6.07522C14.9853 6.65522 15.2853 7.97522 14.6353 8.9352L14.1253 9.6852L15.2853 9.7852C16.4553 9.8852 17.2953 10.9652 17.0853 12.1252C16.8853 13.2652 15.7453 13.9952 14.6253 13.7152L13.7853 13.5352L14.0453 14.3052C14.3753 15.4152 13.6853 16.5752 12.5553 16.8252C11.4053 17.0752 10.2853 16.2852 10.1453 15.1152L9.99532 13.9752L9.21532 14.5452C8.28532 15.2452 6.9653 14.9952 6.3453 14.0152Z" fill="#FFD580"/>
<path d="M11.0753 12.8152C12.1191 12.8152 12.9653 11.969 12.9653 10.9252C12.9653 9.88126 12.1191 9.03516 11.0753 9.03516C10.0315 9.03516 9.1853 9.88126 9.1853 10.9252C9.1853 11.969 10.0315 12.8152 11.0753 12.8152Z" fill="#FFAA00"/>
<path d="M28.732 20.4V11.472H30.208V12.768L30.064 12.444C30.288 12.092 30.592 11.82 30.976 11.628C31.36 11.428 31.804 11.328 32.308 11.328C32.924 11.328 33.48 11.48 33.976 11.784C34.472 12.088 34.864 12.496 35.152 13.008C35.448 13.52 35.596 14.096 35.596 14.736C35.596 15.368 35.452 15.944 35.164 16.464C34.876 16.984 34.484 17.396 33.988 17.7C33.492 17.996 32.928 18.144 32.296 18.144C31.824 18.144 31.388 18.052 30.988 17.868C30.596 17.676 30.284 17.404 30.052 17.052L30.304 16.74V20.4H28.732ZM32.116 16.704C32.476 16.704 32.796 16.62 33.076 16.452C33.356 16.284 33.572 16.052 33.724 15.756C33.884 15.46 33.964 15.12 33.964 14.736C33.964 14.352 33.884 14.016 33.724 13.728C33.572 13.432 33.356 13.2 33.076 13.032C32.796 12.856 32.476 12.768 32.116 12.768C31.772 12.768 31.46 12.852 31.18 13.02C30.908 13.188 30.692 13.424 30.532 13.728C30.38 14.024 30.304 14.36 30.304 14.736C30.304 15.12 30.38 15.46 30.532 15.756C30.692 16.052 30.908 16.284 31.18 16.452C31.46 16.62 31.772 16.704 32.116 16.704ZM36.7945 18V11.472H38.2705V12.924L38.1505 12.708C38.3025 12.22 38.5385 11.88 38.8585 11.688C39.1865 11.496 39.5785 11.4 40.0345 11.4H40.4185V12.792H39.8545C39.4065 12.792 39.0465 12.932 38.7745 13.212C38.5025 13.484 38.3665 13.868 38.3665 14.364V18H36.7945ZM44.3788 18.144C43.7068 18.144 43.1188 17.992 42.6148 17.688C42.1108 17.384 41.7188 16.972 41.4388 16.452C41.1588 15.932 41.0188 15.356 41.0188 14.724C41.0188 14.068 41.1588 13.488 41.4388 12.984C41.7268 12.472 42.1148 12.068 42.6028 11.772C43.0988 11.476 43.6508 11.328 44.2588 11.328C44.7708 11.328 45.2188 11.412 45.6028 11.58C45.9948 11.748 46.3268 11.98 46.5988 12.276C46.8708 12.572 47.0788 12.912 47.2228 13.296C47.3668 13.672 47.4388 14.08 47.4388 14.52C47.4388 14.632 47.4308 14.748 47.4148 14.868C47.4068 14.988 47.3868 15.092 47.3548 15.18H42.3148V13.98H46.4668L45.7228 14.544C45.7948 14.176 45.7748 13.848 45.6628 13.56C45.5588 13.272 45.3828 13.044 45.1348 12.876C44.8948 12.708 44.6028 12.624 44.2588 12.624C43.9308 12.624 43.6388 12.708 43.3828 12.876C43.1268 13.036 42.9308 13.276 42.7948 13.596C42.6668 13.908 42.6188 14.288 42.6508 14.736C42.6188 15.136 42.6708 15.492 42.8068 15.804C42.9508 16.108 43.1588 16.344 43.4308 16.512C43.7108 16.68 44.0308 16.764 44.3908 16.764C44.7508 16.764 45.0548 16.688 45.3028 16.536C45.5588 16.384 45.7588 16.18 45.9028 15.924L47.1748 16.548C47.0468 16.86 46.8468 17.136 46.5748 17.376C46.3028 17.616 45.9788 17.804 45.6028 17.94C45.2348 18.076 44.8268 18.144 44.3788 18.144ZM51.6064 18.072C50.8704 18.072 50.2984 17.872 49.8904 17.472C49.4904 17.064 49.2904 16.492 49.2904 15.756V12.876H48.1624V11.472H48.2824C48.6024 11.472 48.8504 11.388 49.0264 11.22C49.2024 11.052 49.2904 10.808 49.2904 10.488V9.984H50.8624V11.472H52.3624V12.876H50.8624V15.672C50.8624 15.888 50.8984 16.072 50.9704 16.224C51.0504 16.376 51.1704 16.492 51.3304 16.572C51.4984 16.652 51.7104 16.692 51.9664 16.692C52.0224 16.692 52.0864 16.688 52.1584 16.68C52.2384 16.672 52.3144 16.664 52.3864 16.656V18C52.2744 18.016 52.1464 18.032 52.0024 18.048C51.8584 18.064 51.7264 18.072 51.6064 18.072ZM56.5635 18.072C55.8275 18.072 55.2555 17.872 54.8475 17.472C54.4475 17.064 54.2475 16.492 54.2475 15.756V12.876H53.1195V11.472H53.2395C53.5595 11.472 53.8075 11.388 53.9835 11.22C54.1595 11.052 54.2475 10.808 54.2475 10.488V9.984H55.8195V11.472H57.3195V12.876H55.8195V15.672C55.8195 15.888 55.8555 16.072 55.9275 16.224C56.0075 16.376 56.1275 16.492 56.2875 16.572C56.4555 16.652 56.6675 16.692 56.9235 16.692C56.9795 16.692 57.0435 16.688 57.1155 16.68C57.1955 16.672 57.2715 16.664 57.3435 16.656V18C57.2315 18.016 57.1035 18.032 56.9595 18.048C56.8155 18.064 56.6835 18.072 56.5635 18.072ZM59.3365 20.64C59.1605 20.64 58.9885 20.624 58.8205 20.592C58.6525 20.568 58.5005 20.52 58.3645 20.448V19.14C58.4685 19.164 58.5925 19.188 58.7365 19.212C58.8885 19.236 59.0285 19.248 59.1565 19.248C59.5165 19.248 59.7765 19.164 59.9365 18.996C60.1045 18.836 60.2525 18.62 60.3805 18.348L60.8125 17.34L60.7885 18.66L57.9445 11.472H59.6365L61.6285 16.776H61.0285L63.0085 11.472H64.7125L61.8685 18.66C61.7005 19.076 61.4965 19.432 61.2565 19.728C61.0165 20.024 60.7365 20.248 60.4165 20.4C60.1045 20.56 59.7445 20.64 59.3365 20.64ZM68.4646 18V12.876H67.3126V11.472H68.4646V11.256C68.4646 10.76 68.5646 10.34 68.7646 9.996C68.9726 9.644 69.2606 9.376 69.6286 9.192C69.9966 9.008 70.4326 8.916 70.9366 8.916C71.0326 8.916 71.1366 8.924 71.2486 8.94C71.3686 8.948 71.4686 8.96 71.5486 8.976V10.332C71.4686 10.316 71.3926 10.308 71.3206 10.308C71.2566 10.3 71.1966 10.296 71.1406 10.296C70.7886 10.296 70.5166 10.376 70.3246 10.536C70.1326 10.688 70.0366 10.928 70.0366 11.256V11.472H71.4886V12.876H70.0366V18H68.4646ZM74.9116 18.144C74.4076 18.144 73.9676 18.032 73.5916 17.808C73.2236 17.584 72.9396 17.272 72.7396 16.872C72.5476 16.472 72.4516 16.004 72.4516 15.468V11.472H74.0236V15.336C74.0236 15.608 74.0756 15.848 74.1796 16.056C74.2916 16.256 74.4476 16.416 74.6476 16.536C74.8556 16.648 75.0876 16.704 75.3436 16.704C75.5996 16.704 75.8276 16.648 76.0276 16.536C76.2276 16.416 76.3836 16.252 76.4956 16.044C76.6076 15.836 76.6636 15.588 76.6636 15.3V11.472H78.2356V18H76.7476V16.716L76.8796 16.944C76.7276 17.344 76.4756 17.644 76.1236 17.844C75.7796 18.044 75.3756 18.144 74.9116 18.144ZM82.1808 18.144C81.4848 18.144 80.8768 17.98 80.3568 17.652C79.8448 17.316 79.4928 16.864 79.3008 16.296L80.4768 15.732C80.6448 16.1 80.8768 16.388 81.1728 16.596C81.4768 16.804 81.8128 16.908 82.1808 16.908C82.4688 16.908 82.6968 16.844 82.8648 16.716C83.0328 16.588 83.1168 16.42 83.1168 16.212C83.1168 16.084 83.0808 15.98 83.0088 15.9C82.9448 15.812 82.8528 15.74 82.7328 15.684C82.6208 15.62 82.4968 15.568 82.3608 15.528L81.2928 15.228C80.7408 15.068 80.3208 14.824 80.0328 14.496C79.7528 14.168 79.6128 13.78 79.6128 13.332C79.6128 12.932 79.7128 12.584 79.9128 12.288C80.1208 11.984 80.4048 11.748 80.7648 11.58C81.1328 11.412 81.5528 11.328 82.0248 11.328C82.6408 11.328 83.1848 11.476 83.6568 11.772C84.1288 12.068 84.4648 12.484 84.6648 13.02L83.4648 13.584C83.3528 13.288 83.1648 13.052 82.9008 12.876C82.6368 12.7 82.3408 12.612 82.0128 12.612C81.7488 12.612 81.5408 12.672 81.3888 12.792C81.2368 12.912 81.1608 13.068 81.1608 13.26C81.1608 13.38 81.1928 13.484 81.2568 13.572C81.3208 13.66 81.4088 13.732 81.5208 13.788C81.6408 13.844 81.7768 13.896 81.9288 13.944L82.9728 14.256C83.5088 14.416 83.9208 14.656 84.2088 14.976C84.5048 15.296 84.6528 15.688 84.6528 16.152C84.6528 16.544 84.5488 16.892 84.3408 17.196C84.1328 17.492 83.8448 17.724 83.4768 17.892C83.1088 18.06 82.6768 18.144 82.1808 18.144ZM85.8609 18V11.472H87.4329V18H85.8609ZM85.8609 10.74V9.06H87.4329V10.74H85.8609ZM92.0763 18.144C91.4363 18.144 90.8523 17.996 90.3243 17.7C89.8043 17.404 89.3883 17 89.0763 16.488C88.7723 15.976 88.6203 15.392 88.6203 14.736C88.6203 14.08 88.7723 13.496 89.0763 12.984C89.3883 12.472 89.8043 12.068 90.3243 11.772C90.8443 11.476 91.4283 11.328 92.0763 11.328C92.7163 11.328 93.2963 11.476 93.8163 11.772C94.3363 12.068 94.7483 12.472 95.0523 12.984C95.3643 13.488 95.5203 14.072 95.5203 14.736C95.5203 15.392 95.3643 15.976 95.0523 16.488C94.7403 17 94.3243 17.404 93.8043 17.7C93.2843 17.996 92.7083 18.144 92.0763 18.144ZM92.0763 16.704C92.4283 16.704 92.7363 16.62 93.0003 16.452C93.2723 16.284 93.4843 16.052 93.6363 15.756C93.7963 15.452 93.8763 15.112 93.8763 14.736C93.8763 14.352 93.7963 14.016 93.6363 13.728C93.4843 13.432 93.2723 13.2 93.0003 13.032C92.7363 12.856 92.4283 12.768 92.0763 12.768C91.7163 12.768 91.4003 12.856 91.1283 13.032C90.8563 13.2 90.6403 13.432 90.4803 13.728C90.3283 14.016 90.2523 14.352 90.2523 14.736C90.2523 15.112 90.3283 15.452 90.4803 15.756C90.6403 16.052 90.8563 16.284 91.1283 16.452C91.4003 16.62 91.7163 16.704 92.0763 16.704ZM96.7125 18V11.472H98.1885V12.756L98.0685 12.528C98.2205 12.136 98.4685 11.84 98.8125 11.64C99.1645 11.432 99.5725 11.328 100.036 11.328C100.516 11.328 100.94 11.432 101.308 11.64C101.684 11.848 101.976 12.14 102.184 12.516C102.392 12.884 102.496 13.312 102.496 13.8V18H100.924V14.172C100.924 13.884 100.868 13.636 100.756 13.428C100.644 13.22 100.488 13.06 100.288 12.948C100.096 12.828 99.8685 12.768 99.6045 12.768C99.3485 12.768 99.1205 12.828 98.9205 12.948C98.7205 13.06 98.5645 13.22 98.4525 13.428C98.3405 13.636 98.2845 13.884 98.2845 14.172V18H96.7125ZM108.287 18.144C107.783 18.144 107.343 18.032 106.967 17.808C106.599 17.584 106.315 17.272 106.115 16.872C105.923 16.472 105.827 16.004 105.827 15.468V11.472H107.399V15.336C107.399 15.608 107.451 15.848 107.555 16.056C107.667 16.256 107.823 16.416 108.023 16.536C108.231 16.648 108.463 16.704 108.719 16.704C108.975 16.704 109.203 16.648 109.403 16.536C109.603 16.416 109.759 16.252 109.871 16.044C109.983 15.836 110.039 15.588 110.039 15.3V11.472H111.611V18H110.123V16.716L110.255 16.944C110.103 17.344 109.851 17.644 109.499 17.844C109.155 18.044 108.751 18.144 108.287 18.144ZM116.048 18.072C115.312 18.072 114.74 17.872 114.332 17.472C113.932 17.064 113.732 16.492 113.732 15.756V12.876H112.604V11.472H112.724C113.044 11.472 113.292 11.388 113.468 11.22C113.644 11.052 113.732 10.808 113.732 10.488V9.984H115.304V11.472H116.804V12.876H115.304V15.672C115.304 15.888 115.34 16.072 115.412 16.224C115.492 16.376 115.612 16.492 115.772 16.572C115.94 16.652 116.152 16.692 116.408 16.692C116.464 16.692 116.528 16.688 116.6 16.68C116.68 16.672 116.756 16.664 116.828 16.656V18C116.716 18.016 116.588 18.032 116.444 18.048C116.3 18.064 116.168 18.072 116.048 18.072ZM118.029 18V11.472H119.601V18H118.029ZM118.029 10.74V9.06H119.601V10.74H118.029ZM121.052 18V8.916H122.624V18H121.052ZM126.56 18.144C125.864 18.144 125.256 17.98 124.736 17.652C124.224 17.316 123.872 16.864 123.68 16.296L124.856 15.732C125.024 16.1 125.256 16.388 125.552 16.596C125.856 16.804 126.192 16.908 126.56 16.908C126.848 16.908 127.076 16.844 127.244 16.716C127.412 16.588 127.496 16.42 127.496 16.212C127.496 16.084 127.46 15.98 127.388 15.9C127.324 15.812 127.232 15.74 127.112 15.684C127 15.62 126.876 15.568 126.74 15.528L125.672 15.228C125.12 15.068 124.7 14.824 124.412 14.496C124.132 14.168 123.992 13.78 123.992 13.332C123.992 12.932 124.092 12.584 124.292 12.288C124.5 11.984 124.784 11.748 125.144 11.58C125.512 11.412 125.932 11.328 126.404 11.328C127.02 11.328 127.564 11.476 128.036 11.772C128.508 12.068 128.844 12.484 129.044 13.02L127.844 13.584C127.732 13.288 127.544 13.052 127.28 12.876C127.016 12.7 126.72 12.612 126.392 12.612C126.128 12.612 125.92 12.672 125.768 12.792C125.616 12.912 125.54 13.068 125.54 13.26C125.54 13.38 125.572 13.484 125.636 13.572C125.7 13.66 125.788 13.732 125.9 13.788C126.02 13.844 126.156 13.896 126.308 13.944L127.352 14.256C127.888 14.416 128.3 14.656 128.588 14.976C128.884 15.296 129.032 15.688 129.032 16.152C129.032 16.544 128.928 16.892 128.72 17.196C128.512 17.492 128.224 17.724 127.856 17.892C127.488 18.06 127.056 18.144 126.56 18.144Z" fill="#201432"/>
</svg>
