<svg width="24" height="24" viewBox="0 0 24 24" fill="none" xmlns="http://www.w3.org/2000/svg">
<path d="M15.1588 10.9431L15.1657 10.9485C15.2489 10.8348 15.33 10.7194 15.4087 10.6024C15.4065 10.5902 15.4043 10.5779 15.402 10.5657C16.31 9.07896 17.3449 6.51751 17.2578 4.17219L17.2319 3.47361C17.2282 3.37288 17.1224 3.31069 17.0348 3.35776L16.4276 3.68418C15.5187 4.17274 14.6979 4.79383 13.9828 5.51615C13.6019 4.92588 13.1769 4.36456 12.7114 3.83822C13.5249 3.04956 14.4474 2.3677 15.4619 1.82232L16.0691 1.49591C17.5038 0.72471 19.2373 1.74362 19.2985 3.39408L19.3245 4.09265C19.4699 8.00899 17.7898 11.7797 14.9203 14.2831C14.7645 14.2777 14.6169 14.2688 14.4785 14.2568L14.8909 11.3078C14.9766 11.2006 15.0664 11.0785 15.1588 10.9431Z" fill="white"/>
<path d="M12.4833 8.28424C12.5561 8.42386 12.6221 8.55829 12.6809 8.68627L9.96575 9.79723C9.82085 9.7736 9.6729 9.75368 9.52232 9.73747L9.52271 9.73468C9.38431 9.71815 9.24563 9.7044 9.10676 9.69342C9.10351 9.69624 9.10026 9.69906 9.09701 9.70189C7.01248 9.57593 4.52808 10.1157 2.71226 11.2783L2.13099 11.6504C2.04717 11.7041 2.04717 11.8284 2.13099 11.8821L2.71226 12.2543C3.58229 12.8113 4.52104 13.2244 5.49302 13.4937C5.18137 14.1247 4.91636 14.7801 4.70141 15.4537C3.62375 15.1308 2.58248 14.6584 1.61128 14.0366L1.03 13.6644C-0.343335 12.7852 -0.343335 10.7473 1.03 9.86809L1.61128 9.49593C4.87045 7.40929 8.91867 7.00539 12.4833 8.28424Z" fill="white"/>
<path d="M8.59359 13.4105C9.28305 17.2013 11.6532 20.5778 15.0642 22.4114L15.6715 22.7378C17.1061 23.509 18.8396 22.4901 18.9009 20.8397L18.9268 20.1411C18.9701 18.9739 18.8513 17.8197 18.5872 16.7081C17.9067 16.8554 17.2167 16.9494 16.5241 16.9901C16.7811 17.9817 16.899 19.016 16.8602 20.0615L16.8342 20.7601C16.8305 20.8608 16.7247 20.923 16.6371 20.876L16.0299 20.5496C13.9648 19.4394 12.3219 17.2599 11.5167 15.7158C11.506 15.7119 11.4952 15.708 11.4845 15.7042C11.4244 15.5762 11.3668 15.4471 11.3116 15.3168L11.3191 15.3137C11.2507 15.1647 11.1919 15.0244 11.1433 14.8949L8.83651 13.0532C8.75388 13.1689 8.67285 13.288 8.59359 13.4105Z" fill="white"/>
<path d="M15.1657 10.9485C15.1655 10.9487 15.1658 10.9483 15.1657 10.9485Z" fill="url(#paint0_linear_4_41)"/>
<path d="M14.767 10.6302L14.8761 10.4704L14.8757 10.4682L14.9753 10.3051C15.0648 10.1586 15.1554 10.0015 15.2458 9.83518C14.3954 6.35411 12.1187 3.29963 8.93576 1.58859L8.32854 1.26217C6.89391 0.490976 5.16041 1.50989 5.09913 3.16034L5.07319 3.85892C5.02985 5.02609 5.14865 6.18033 5.41276 7.29193C6.09328 7.14463 6.78326 7.05061 7.47586 7.00987C7.21894 6.01827 7.10101 4.98403 7.13983 3.93845L7.16577 3.23988C7.16951 3.13915 7.27532 3.07696 7.36287 3.12403L7.97009 3.45044C9.75901 4.41209 11.2311 6.17616 12.1162 7.63457C12.2959 7.69023 12.4746 7.74992 12.6521 7.81361L12.8362 7.87965L12.9267 8.05306C13.003 8.19951 13.0727 8.34143 13.1352 8.47752L13.353 8.95149L12.8977 9.1378L14.767 10.6302Z" fill="url(#paint1_linear_4_41)"/>
<path d="M13.978 14.2258L11.7823 15.1242L11.8679 15.3106L11.8696 15.3112L11.96 15.4846C12.037 15.6321 12.1217 15.7853 12.2138 15.9427C15.6015 16.9353 19.3403 16.4558 22.3887 14.5041L22.97 14.1319C24.3433 13.2526 24.3433 11.2148 22.97 10.3356L22.3887 9.96341C21.4175 9.34161 20.3762 8.86924 19.2986 8.54629C19.0836 9.21994 18.8186 9.87528 18.507 10.5063C19.479 10.7756 20.4177 11.1887 21.2877 11.7457L21.869 12.1179C21.9528 12.1716 21.9528 12.2959 21.869 12.3496L21.2877 12.7217C19.5849 13.8119 17.3451 14.2288 15.6627 14.283C15.5276 14.4115 15.3896 14.5371 15.249 14.6598L15.1002 14.7896L14.9029 14.7828C14.7393 14.7771 14.583 14.7677 14.4354 14.755L13.9103 14.7095L13.978 14.2258Z" fill="url(#paint2_linear_4_41)"/>
<path d="M8.21307 14.0474C7.27335 15.7519 6.67075 17.9046 6.74217 19.8278L6.76811 20.5264C6.77185 20.6271 6.87765 20.6893 6.96521 20.6422L7.57243 20.3158C8.48127 19.8273 9.3021 19.2062 10.0172 18.4838C10.3981 19.0741 10.8231 19.6354 11.2886 20.1618C10.4751 20.9504 9.55263 21.6323 8.53809 22.1777L7.93087 22.5041C6.49625 23.2753 4.76275 22.2564 4.70146 20.6059L4.67552 19.9073C4.53889 16.2276 6.01386 12.6765 8.57283 10.1843C8.73967 10.1856 8.90453 10.1912 9.06685 10.201L9.27082 10.2133L9.45303 10.2329L9.11676 12.6372L8.73634 12.3334L8.42971 12.7625C8.34248 12.8846 8.25716 13.0101 8.17389 13.1387L8.06621 13.305L8.10166 13.4999C8.13503 13.6834 8.17219 13.8659 8.21307 14.0474Z" fill="url(#paint3_linear_4_41)"/>
<path d="M11.4845 15.7042C11.4683 15.6697 11.4523 15.6351 11.4364 15.6004C11.3936 15.5066 11.352 15.4122 11.3118 15.3171L11.3191 15.3137" fill="url(#paint4_linear_4_41)"/>
<path d="M9.52262 9.73467C9.52259 9.73466 9.52265 9.73467 9.52262 9.73467Z" fill="url(#paint5_linear_4_41)"/>
<path d="M15.402 10.5657L15.4087 10.6024C15.4065 10.5902 15.4043 10.5779 15.402 10.5657Z" fill="url(#paint6_linear_4_41)"/>
<defs>
<linearGradient id="paint0_linear_4_41" x1="14.3334" y1="1" x2="14.3334" y2="22.7663" gradientUnits="userSpaceOnUse">
<stop stop-color="#FF00AA"/>
<stop offset="1" stop-color="#FFAA00"/>
</linearGradient>
<linearGradient id="paint1_linear_4_41" x1="14.3334" y1="1" x2="14.3334" y2="22.7663" gradientUnits="userSpaceOnUse">
<stop stop-color="#FF00AA"/>
<stop offset="1" stop-color="#FFAA00"/>
</linearGradient>
<linearGradient id="paint2_linear_4_41" x1="14.3334" y1="1" x2="14.3334" y2="22.7663" gradientUnits="userSpaceOnUse">
<stop stop-color="#FF00AA"/>
<stop offset="1" stop-color="#FFAA00"/>
</linearGradient>
<linearGradient id="paint3_linear_4_41" x1="14.3334" y1="1" x2="14.3334" y2="22.7663" gradientUnits="userSpaceOnUse">
<stop stop-color="#FF00AA"/>
<stop offset="1" stop-color="#FFAA00"/>
</linearGradient>
<linearGradient id="paint4_linear_4_41" x1="14.3334" y1="1" x2="14.3334" y2="22.7663" gradientUnits="userSpaceOnUse">
<stop stop-color="#FF00AA"/>
<stop offset="1" stop-color="#FFAA00"/>
</linearGradient>
<linearGradient id="paint5_linear_4_41" x1="14.3334" y1="1" x2="14.3334" y2="22.7663" gradientUnits="userSpaceOnUse">
<stop stop-color="#FF00AA"/>
<stop offset="1" stop-color="#FFAA00"/>
</linearGradient>
<linearGradient id="paint6_linear_4_41" x1="14.3334" y1="1" x2="14.3334" y2="22.7663" gradientUnits="userSpaceOnUse">
<stop stop-color="#FF00AA"/>
<stop offset="1" stop-color="#FFAA00"/>
</linearGradient>
</defs>
</svg>
